Simulation
nRows=16
nColumns=15
endheader
time  TH_x TH_y TH_z SC_y  SC_z  SC_x  AC_y  AC_z  AC_x  GH_y  GH_z  GH_yy  EL_x  PS_y
0.0  0.000000  0.000000  0.000000  -40.97484877243665  6.293857566463187  5.290427962726946  44.28803086296461  6.9146772867507575  -0.024603235945382745  175.19030584785548  6.723033117993765  -149.97037165487544  22.66363683885979  120.000000
0.05745  0.000000  0.000000  0.000000  -38.8984261196234  5.8618601304877265  3.178170640414474  43.34468877383738  7.087966063459073  0.12524287869112152  168.80108086011344  3.550251884107327  -144.72978853747017  22.079102829766562  120.000000
0.1149  0.000000  0.000000  0.000000  -36.98610682457283  5.286723782412681  1.0581036624991902  42.48676220740954  7.069317026848112  0.31034197955600856  116.38731937484656  0.9635151549133898  -93.44996378637363  21.67406047296425  120.000000
0.17235  0.000000  0.000000  0.000000  -35.350877732658304  4.6237047052681595  -0.9680935037577333  41.75836953852021  6.913031060663548  0.5495523750237287  24.36424583050668  2.743919207538282  -2.5560817396680022  21.529465271982485  120.000000
0.2298  0.000000  0.000000  0.000000  -34.04814869777046  3.9462374838571552  -2.831231170454986  41.189435153980824  6.707001223567537  0.8573326964567864  15.383135399819205  5.554359647470933  5.290849052419135  21.654419701837977  120.000000
0.28725  0.000000  0.000000  0.000000  -33.08989772898143  3.331885995065459  -4.493177346179425  40.77486980792123  6.550947812530326  1.2474043819928087  12.495338168653788  8.404320959277722  7.015518757422576  21.98551832980038  120.000000
0.3447  0.000000  0.000000  0.000000  -32.46788080536361  2.8578588801991662  -5.925626554927372  40.4851788971788  6.5184737182160974  1.7191969262408604  10.693747035608013  11.30944198544472  7.591713670678384  22.422978583873014  120.000000
0.40215  0.000000  0.000000  0.000000  -32.1740847427962  2.580205654641969  -7.093943159948587  40.285151584310846  6.635689375993589  2.2436716996943735  9.135507102712591  14.321027801408443  7.829048489528116  22.855975358563633  120.000000
0.4596  0.000000  0.000000  0.000000  -32.199684791733084  2.532332406689507  -7.95846924591699  40.146463618925274  6.880955054066369  2.773414427673307  7.672720160696582  17.484774149404828  7.857104295743061  23.191182338054947  120.000000
0.51705  0.000000  0.000000  0.000000  -32.531741971717565  2.7241725524918774  -8.476083308329457  40.05319680790454  7.198158418049791  3.2598003814929037  6.331330485636176  20.82247338967324  7.65493782766157  23.36702537544503  120.000000
0.5745  0.000000  0.000000  0.000000  -33.14871845045169  3.152700769017967  -8.61454430569229  40.00633933653123  7.5175456538606165  3.6721003118845403  5.186004559840112  24.31946577735249  7.177734933378593  23.362309615559504  120.000000
0.63195  0.000000  0.000000  0.000000  -34.026165746610666  3.8000802080128464  -8.39110471992765  40.01940097391749  7.793096890424932  4.026298527573397  4.3187673795390245  27.930086928562265  6.386840213479574  23.187549248770466  120.000000
0.6894  0.000000  0.000000  0.000000  -35.142334123007224  4.6314658889589735  -7.879634664639522  40.113740766156866  8.01370743968544  4.381423418853066  3.8054511591943245  31.595028596697723  5.2472207205815415  22.871779106829944  120.000000
0.74685  0.000000  0.000000  0.000000  -36.48058453967608  5.595230934726544  -7.160714491953788  40.31536767993522  8.182508655520099  4.793509188577155  3.693971910125468  35.256749580780536  3.7343209603377683  22.451272869759016  120.000000
0.8043  0.000000  0.000000  0.000000  -38.018390696934  6.63677112415905  -6.295512062934887  40.64602509469352  8.30949679114107  5.292091256701753  3.987348453565575  38.86193785877071  1.8442980432901506  21.963305183566614  120.000000
0.86175  0.000000  0.000000  0.000000  -39.71761871701086  7.705791946632501  -5.324867643029247  41.112341649663236  8.418673688999997  5.883889252735692  4.63628377104661  42.36181325995503  -0.39349556201005237  21.443377114449046  120.000000
